<svg width="32" height="32" viewBox="0 0 32 32" fill="none" xmlns="http://www.w3.org/2000/svg">
<circle cx="16" cy="16" r="16" fill="#FDA2A2"/>
<path d="M16 30C12.287 30 8.72601 28.525 6.1005 25.8995C3.475 23.274 2 19.713 2 16C2 12.287 3.475 8.72601 6.1005 6.1005C8.72601 3.475 12.287 2 16 2C19.713 2 23.274 3.475 25.8995 6.1005C28.525 8.72601 30 12.287 30 16C30 19.713 28.525 23.274 25.8995 25.8995C23.274 28.525 19.713 30 16 30ZM16 32C20.2435 32 24.3131 30.3143 27.3137 27.3137C30.3143 24.3131 32 20.2435 32 16C32 11.7565 30.3143 7.68687 27.3137 4.68629C24.3131 1.68571 20.2435 0 16 0C11.7565 0 7.68687 1.68571 4.68629 4.68629C1.68571 7.68687 0 11.7565 0 16C0 20.2435 1.68571 24.3131 4.68629 27.3137C7.68687 30.3143 11.7565 32 16 32V32Z" fill="black"/>
<path d="M17.8599 13.176L13.2799 13.75L13.1159 14.51L14.0159 14.676C14.6039 14.816 14.7199 15.028 14.5919 15.614L13.1159 22.55C12.7279 24.344 13.3259 25.188 14.7319 25.188C15.8219 25.188 17.0879 24.684 17.6619 23.992L17.8379 23.16C17.4379 23.512 16.8539 23.652 16.4659 23.652C15.9159 23.652 15.7159 23.266 15.8579 22.586L17.8599 13.176ZM17.9999 9C17.9999 9.53043 17.7892 10.0391 17.4141 10.4142C17.039 10.7893 16.5303 11 15.9999 11C15.4695 11 14.9608 10.7893 14.5857 10.4142C14.2106 10.0391 13.9999 9.53043 13.9999 9C13.9999 8.46957 14.2106 7.96086 14.5857 7.58579C14.9608 7.21071 15.4695 7 15.9999 7C16.5303 7 17.039 7.21071 17.4141 7.58579C17.7892 7.96086 17.9999 8.46957 17.9999 9Z" fill="black"/>
</svg>
