<?xml version="1.0" standalone="no"?>
<!DOCTYPE svg PUBLIC "-//W3C//DTD SVG 20010904//EN"
 "http://www.w3.org/TR/2001/REC-SVG-20010904/DTD/svg10.dtd">
<svg version="1.0" xmlns="http://www.w3.org/2000/svg"
 width="198.000000pt" height="199.000000pt" viewBox="0 0 198.000000 199.000000"
 preserveAspectRatio="xMidYMid meet">

<g transform="translate(0.000000,199.000000) scale(0.100000,-0.100000)"
fill="#000000" stroke="none">
<path d="M677 1912 l-57 -58 105 -169 c58 -94 105 -173 105 -177 0 -14 -24 -9
-56 11 -17 11 -96 52 -174 91 l-142 72 -64 -63 c-54 -54 -61 -65 -47 -73 9 -5
91 -39 182 -76 313 -127 346 -142 358 -157 18 -23 28 -102 14 -116 -8 -8 -18
-4 -38 15 -67 63 -184 116 -483 219 -124 42 -233 80 -242 84 -16 6 -18 -1 -18
-82 l0 -89 183 -43 c100 -24 190 -45 200 -48 27 -7 15 -26 -24 -36 -19 -4
-107 -31 -196 -59 l-163 -51 0 -89 c0 -53 4 -88 10 -88 9 0 220 85 275 110 92
43 264 110 282 110 26 0 106 -67 97 -81 -3 -5 -22 -9 -42 -9 -89 0 -249 -63
-582 -230 -80 -40 -147 -74 -150 -76 -2 -3 23 -32 56 -64 l59 -60 150 91 c204
125 203 124 210 117 3 -3 -21 -55 -54 -114 -32 -60 -76 -144 -97 -186 l-38
-76 64 -61 c76 -73 58 -89 153 144 114 278 144 347 158 356 15 9 119 13 119 4
0 -3 -20 -32 -44 -64 -57 -79 -112 -206 -206 -482 l-78 -229 88 0 87 0 27 112
c29 120 54 228 62 266 11 53 22 25 119 -290 l27 -88 89 0 c49 0 89 4 89 8 0 9
-55 144 -159 394 -33 80 -61 156 -61 167 0 23 56 91 75 91 8 0 14 -21 18 -58
10 -91 59 -217 187 -479 65 -134 120 -243 123 -243 2 0 29 29 60 64 l56 63
-65 109 c-36 60 -84 137 -106 172 -22 34 -38 66 -34 70 7 6 44 -11 256 -123
57 -30 109 -55 115 -55 13 0 131 118 124 124 -5 5 -230 100 -409 173 -74 30
-141 62 -147 71 -13 16 -18 122 -7 122 4 0 26 -16 50 -35 70 -58 186 -109 464
-205 144 -49 264 -90 266 -90 3 0 3 39 2 87 l-3 86 -180 44 c-99 24 -190 46
-202 48 -36 8 -27 23 20 35 23 6 113 34 200 61 l157 50 0 90 c0 49 -3 89 -7
89 -3 0 -125 -50 -269 -110 -145 -61 -275 -110 -288 -110 -27 0 -96 54 -96 75
0 8 22 14 63 18 69 6 126 23 232 69 77 34 476 226 484 233 2 3 -24 32 -59 64
l-64 58 -115 -69 c-64 -39 -139 -85 -168 -104 -28 -19 -56 -34 -62 -34 -16 0
-14 22 4 47 26 37 165 311 165 325 0 15 -117 135 -124 127 -2 -2 -52 -123
-112 -269 -60 -146 -117 -273 -126 -282 -13 -13 -34 -18 -73 -18 -30 0 -55 4
-55 8 0 5 12 19 26 33 59 55 116 183 225 504 l79 230 -77 3 c-42 2 -82 1 -89
-2 -7 -3 -15 -20 -19 -38 -8 -38 -75 -327 -81 -345 -7 -25 -21 -12 -33 30 -7
23 -35 113 -62 200 l-50 157 -89 0 c-50 0 -90 -3 -90 -7 0 -6 139 -345 191
-465 38 -86 37 -116 -2 -156 -17 -18 -35 -32 -40 -32 -4 0 -11 17 -14 38 -12
75 -27 128 -60 212 -41 106 -243 520 -253 520 -4 0 -33 -26 -65 -58z m345
-896 c15 -22 8 -47 -17 -58 -20 -9 -28 -8 -44 6 -20 18 -18 54 3 68 13 9 48
-1 58 -16z"/>
</g>
</svg>
